G04 Layer_Physical_Order=4*
G04 Layer_Color=16711680*
%FSLAX25Y25*%
%MOIN*%
G70*
G01*
G75*
%ADD10C,0.01000*%
%ADD11R,0.07087X0.07087*%
%ADD12C,0.07087*%
%ADD13C,0.05512*%
%ADD14C,0.32677*%
%ADD15R,0.05906X0.05906*%
%ADD16C,0.05906*%
%ADD17R,0.05906X0.05906*%
%ADD18R,0.06299X0.06299*%
%ADD19C,0.06299*%
%ADD20R,0.06299X0.06299*%
%ADD21C,0.05315*%
%ADD22R,0.05315X0.05315*%
%ADD23C,0.05000*%
D10*
X102953Y143547D02*
X109882D01*
X98500Y148000D02*
X102953Y143547D01*
X109882D02*
X175500Y77929D01*
X277000Y220567D02*
X282760Y226327D01*
X301673D02*
X311500Y216500D01*
X282760Y226327D02*
X301673D01*
X224260Y166453D02*
X226844D01*
X185500Y205213D02*
X224260Y166453D01*
X65500Y81567D02*
X76500Y92567D01*
X65500Y64500D02*
Y81567D01*
X175500Y76500D02*
Y77929D01*
X197713Y85000D02*
X205500Y77213D01*
X171500Y85000D02*
X197713D01*
X271284Y77929D02*
X272000Y77213D01*
X250571Y77929D02*
X271284D01*
X206000Y122500D02*
X250571Y77929D01*
X311500Y198500D02*
Y216500D01*
X108500Y148000D02*
X171500Y85000D01*
X369287Y174000D02*
X401500Y206213D01*
X299000Y174000D02*
X369287D01*
X371500Y77929D02*
Y90000D01*
Y77213D02*
Y77929D01*
X35500Y44000D02*
X36500Y45000D01*
X401500Y77929D02*
Y88000D01*
Y77213D02*
Y77929D01*
X302000Y77213D02*
X306500Y81713D01*
X101500Y77929D02*
Y90435D01*
Y77213D02*
Y77929D01*
X282500Y36000D02*
Y47000D01*
X311000Y75500D01*
Y98000D02*
Y98500D01*
Y75500D02*
Y98000D01*
X101500Y94699D02*
Y109500D01*
Y94699D02*
X101543Y94656D01*
Y90478D02*
Y94656D01*
X101500Y90435D02*
X101543Y90478D01*
X88500Y122500D02*
X101500Y109500D01*
X285000Y172000D02*
X311500Y198500D01*
X288000Y124500D02*
X306500Y106000D01*
Y81713D02*
Y106000D01*
X118500Y147500D02*
Y148000D01*
Y147500D02*
X143500Y122500D01*
X206000D01*
X323000Y138500D02*
X371500Y90000D01*
X206546Y138500D02*
X323000D01*
X401500Y88000D02*
X403500Y90000D01*
X368500Y140500D02*
X403500Y105500D01*
Y90000D02*
Y105500D01*
X65500Y64500D02*
X87500Y42500D01*
X236844Y166453D02*
X241297Y162000D01*
X245000D01*
X234260Y166453D02*
X236844D01*
X195500Y205213D02*
X234260Y166453D01*
X226844D02*
X231297Y162000D01*
X235000D01*
X166842Y193157D02*
X193842D01*
X113500Y246500D02*
X166842Y193157D01*
X113500Y246500D02*
Y259500D01*
X97500Y193000D02*
Y207646D01*
Y193000D02*
X124047Y166453D01*
X210547D01*
X114500Y164000D02*
X203000D01*
X87500Y191000D02*
X114500Y164000D01*
X87500Y191000D02*
Y207646D01*
X292000Y203172D02*
Y205213D01*
X282000Y196000D02*
Y205213D01*
X193842Y193157D02*
X225000Y162000D01*
X275000Y186172D02*
X292000Y203172D01*
X275000Y162000D02*
Y186172D01*
X138500Y148000D02*
X142953Y143547D01*
X201499D01*
X206546Y138500D01*
X128500Y148000D02*
X152000Y124500D01*
X211000Y260000D02*
Y261000D01*
X210547Y166453D02*
X215000Y162000D01*
X285000Y149547D02*
Y152000D01*
X148500Y148000D02*
X199874D01*
X207374Y140500D01*
X203000Y164000D02*
X205000Y162000D01*
X211000Y199000D02*
X243547Y166453D01*
X211000Y199000D02*
Y260000D01*
X64000Y42500D02*
X69500D01*
X265000Y162000D02*
Y179000D01*
X282000Y196000D01*
X285000Y162000D02*
Y172000D01*
X207374Y140500D02*
X368500D01*
X88500Y122500D02*
Y148000D01*
X113500Y259500D02*
Y261000D01*
X243547Y166453D02*
X250547D01*
X255000Y162000D01*
X152000Y124500D02*
X288000D01*
X36500Y45000D02*
X61500D01*
X64000Y42500D01*
D11*
X371500Y206929D02*
D03*
Y77929D02*
D03*
X175500Y205929D02*
D03*
Y77929D02*
D03*
X71500D02*
D03*
X77500Y208362D02*
D03*
X272000Y205929D02*
D03*
Y77929D02*
D03*
D12*
X376500Y222284D02*
D03*
X381500Y206929D02*
D03*
X386500Y222284D02*
D03*
X391500Y206929D02*
D03*
X396500Y222284D02*
D03*
X401500Y206929D02*
D03*
X376500Y93283D02*
D03*
X381500Y77929D02*
D03*
X386500Y93283D02*
D03*
X391500Y77929D02*
D03*
X396500Y93283D02*
D03*
X401500Y77929D02*
D03*
X180500Y221284D02*
D03*
X185500Y205929D02*
D03*
X190500Y221284D02*
D03*
X195500Y205929D02*
D03*
X200500Y221284D02*
D03*
X205500Y205929D02*
D03*
X180500Y93283D02*
D03*
X185500Y77929D02*
D03*
X190500Y93283D02*
D03*
X195500Y77929D02*
D03*
X200500Y93283D02*
D03*
X205500Y77929D02*
D03*
X76500Y93283D02*
D03*
X81500Y77929D02*
D03*
X86500Y93283D02*
D03*
X91500Y77929D02*
D03*
X96500Y93283D02*
D03*
X101500Y77929D02*
D03*
X82500Y223716D02*
D03*
X87500Y208362D02*
D03*
X92500Y223716D02*
D03*
X97500Y208362D02*
D03*
X102500Y223716D02*
D03*
X107500Y208362D02*
D03*
X277000Y221284D02*
D03*
X282000Y205929D02*
D03*
X287000Y221284D02*
D03*
X292000Y205929D02*
D03*
X297000Y221284D02*
D03*
X302000Y205929D02*
D03*
X277000Y93283D02*
D03*
X282000Y77929D02*
D03*
X287000Y93283D02*
D03*
X292000Y77929D02*
D03*
X297000Y93283D02*
D03*
X302000Y77929D02*
D03*
D13*
X45000Y128000D02*
D03*
X13000D02*
D03*
X87500Y42500D02*
D03*
Y10500D02*
D03*
X355500Y44000D02*
D03*
Y12000D02*
D03*
X265000Y41000D02*
D03*
Y9000D02*
D03*
X398500Y259500D02*
D03*
Y291500D02*
D03*
X166000Y42500D02*
D03*
Y10500D02*
D03*
X310000Y260000D02*
D03*
Y292000D02*
D03*
X211000Y260000D02*
D03*
Y292000D02*
D03*
X113500Y259500D02*
D03*
Y291500D02*
D03*
X265000Y260000D02*
D03*
Y292000D02*
D03*
X213000Y42500D02*
D03*
Y10500D02*
D03*
X400500Y44000D02*
D03*
Y12000D02*
D03*
X132500Y42500D02*
D03*
Y10500D02*
D03*
X309500Y40500D02*
D03*
Y8500D02*
D03*
X166000Y260000D02*
D03*
Y292000D02*
D03*
X353500Y259500D02*
D03*
Y291500D02*
D03*
X68500Y258500D02*
D03*
Y290500D02*
D03*
X69500Y42500D02*
D03*
Y10500D02*
D03*
D14*
X428000Y21000D02*
D03*
X20500D02*
D03*
X428000Y279000D02*
D03*
X20500D02*
D03*
D15*
X78500Y158000D02*
D03*
X205000Y162000D02*
D03*
D16*
X78500Y148000D02*
D03*
X88500Y158000D02*
D03*
Y148000D02*
D03*
X98500Y158000D02*
D03*
Y148000D02*
D03*
X108500Y158000D02*
D03*
Y148000D02*
D03*
X118500Y158000D02*
D03*
Y148000D02*
D03*
X128500Y158000D02*
D03*
Y148000D02*
D03*
X138500Y158000D02*
D03*
Y148000D02*
D03*
X148500Y158000D02*
D03*
Y148000D02*
D03*
X375000Y152000D02*
D03*
Y162000D02*
D03*
X365000Y152000D02*
D03*
Y162000D02*
D03*
X355000Y152000D02*
D03*
Y162000D02*
D03*
X345000Y152000D02*
D03*
Y162000D02*
D03*
X335000Y152000D02*
D03*
Y162000D02*
D03*
X325000Y152000D02*
D03*
Y162000D02*
D03*
X315000Y152000D02*
D03*
Y162000D02*
D03*
X305000Y152000D02*
D03*
Y162000D02*
D03*
X295000Y152000D02*
D03*
Y162000D02*
D03*
X285000Y152000D02*
D03*
Y162000D02*
D03*
X275000Y152000D02*
D03*
Y162000D02*
D03*
X265000Y152000D02*
D03*
Y162000D02*
D03*
X255000Y152000D02*
D03*
Y162000D02*
D03*
X245000Y152000D02*
D03*
Y162000D02*
D03*
X235000Y152000D02*
D03*
Y162000D02*
D03*
X225000Y152000D02*
D03*
Y162000D02*
D03*
X215000Y152000D02*
D03*
Y162000D02*
D03*
X205000Y152000D02*
D03*
X413000Y165000D02*
D03*
X434500Y128000D02*
D03*
D17*
X413000Y155000D02*
D03*
X434500Y118000D02*
D03*
D18*
X35500Y151000D02*
D03*
Y45000D02*
D03*
D19*
Y161000D02*
D03*
X373000Y38000D02*
D03*
X105000Y37049D02*
D03*
X381000Y267561D02*
D03*
X292500Y268061D02*
D03*
X193500D02*
D03*
X282500Y36000D02*
D03*
X96000Y268061D02*
D03*
X183500Y36000D02*
D03*
X35500Y55000D02*
D03*
D20*
X383000Y38000D02*
D03*
X115000Y37049D02*
D03*
X371000Y267561D02*
D03*
X282500Y268061D02*
D03*
X183500D02*
D03*
X292500Y36000D02*
D03*
X86000Y268061D02*
D03*
X193500Y36000D02*
D03*
D21*
X328658Y90500D02*
D03*
X327658Y199500D02*
D03*
X232658Y103000D02*
D03*
Y192500D02*
D03*
X133158Y197500D02*
D03*
X127157Y95500D02*
D03*
X52157Y175000D02*
D03*
X38157Y104500D02*
D03*
D22*
X348342Y90500D02*
D03*
X347342Y199500D02*
D03*
X252343Y103000D02*
D03*
Y192500D02*
D03*
X152842Y197500D02*
D03*
X146843Y95500D02*
D03*
X71842Y175000D02*
D03*
X57842Y104500D02*
D03*
D23*
X311000Y98000D02*
D03*
X299000Y174000D02*
D03*
M02*
