G04 Layer_Color=32896*
%FSLAX25Y25*%
%MOIN*%
G70*
G01*
G75*
%ADD10C,0.01000*%
%ADD36C,0.00787*%
%ADD50C,0.00800*%
D10*
X157801Y172398D02*
X159801D01*
X158801D01*
Y167400D01*
X159801Y166400D01*
X160800D01*
X161800Y167400D01*
X152803Y166400D02*
Y172398D01*
X155802Y169399D01*
X151803D01*
X385101Y176398D02*
X387101D01*
X386101D01*
Y171400D01*
X387101Y170400D01*
X388100D01*
X389100Y171400D01*
X383102Y175398D02*
X382102Y176398D01*
X380103D01*
X379103Y175398D01*
Y174399D01*
X380103Y173399D01*
X381103D01*
X380103D01*
X379103Y172399D01*
Y171400D01*
X380103Y170400D01*
X382102D01*
X383102Y171400D01*
D36*
X153500Y143000D02*
Y163000D01*
X73500Y143000D02*
Y163000D01*
X153500D01*
X73500Y143000D02*
X153500D01*
X200000Y167000D02*
X380000D01*
X200000Y147000D02*
X380000D01*
X200000D02*
Y167000D01*
X380000Y147000D02*
Y167000D01*
D50*
X66168Y145500D02*
X69500D01*
X66168Y148832D01*
Y149665D01*
X67001Y150498D01*
X68667D01*
X69500Y149665D01*
X68500Y154500D02*
X66834D01*
X67667D01*
Y159498D01*
X68500Y158665D01*
X165000Y154500D02*
X163334D01*
X164167D01*
Y159498D01*
X165000Y158665D01*
X157502Y159498D02*
X160835D01*
Y156999D01*
X159169Y157832D01*
X158335D01*
X157502Y156999D01*
Y155333D01*
X158335Y154500D01*
X160002D01*
X160835Y155333D01*
X165500Y144500D02*
X163834D01*
X164667D01*
Y149498D01*
X165500Y148665D01*
X158002Y149498D02*
X159669Y148665D01*
X161335Y146999D01*
Y145333D01*
X160502Y144500D01*
X158835D01*
X158002Y145333D01*
Y146166D01*
X158835Y146999D01*
X161335D01*
X393500Y153665D02*
X392667Y154498D01*
X391001D01*
X390168Y153665D01*
Y152832D01*
X391001Y151999D01*
X391834D01*
X391001D01*
X390168Y151166D01*
Y150333D01*
X391001Y149500D01*
X392667D01*
X393500Y150333D01*
X385169Y154498D02*
X386836Y153665D01*
X388502Y151999D01*
Y150333D01*
X387669Y149500D01*
X386002D01*
X385169Y150333D01*
Y151166D01*
X386002Y151999D01*
X388502D01*
X393000Y163665D02*
X392167Y164498D01*
X390501D01*
X389668Y163665D01*
Y162832D01*
X390501Y161999D01*
X391334D01*
X390501D01*
X389668Y161166D01*
Y160333D01*
X390501Y159500D01*
X392167D01*
X393000Y160333D01*
X384669Y164498D02*
X388002D01*
Y161999D01*
X386335Y162832D01*
X385502D01*
X384669Y161999D01*
Y160333D01*
X385502Y159500D01*
X387169D01*
X388002Y160333D01*
X195500Y159000D02*
X193834D01*
X194667D01*
Y163998D01*
X195500Y163165D01*
X192668Y149500D02*
X196000D01*
X192668Y152832D01*
Y153665D01*
X193501Y154498D01*
X195167D01*
X196000Y153665D01*
M02*
