G04 Layer_Color=65535*
%FSLAX25Y25*%
%MOIN*%
G70*
G01*
G75*
%ADD10C,0.01000*%
%ADD35C,0.00500*%
%ADD36C,0.00787*%
D10*
X365500Y201284D02*
Y239283D01*
X407500D01*
Y201284D02*
Y239283D01*
X365500Y201284D02*
X407500D01*
X365500Y72284D02*
Y110284D01*
X407500D01*
Y72284D02*
Y110284D01*
X365500Y72284D02*
X407500D01*
X169500Y200284D02*
Y238283D01*
X211500D01*
Y200284D02*
Y238283D01*
X169500Y200284D02*
X211500D01*
X169500Y72284D02*
Y110284D01*
X211500D01*
Y72284D02*
Y110284D01*
X169500Y72284D02*
X211500D01*
X65500D02*
Y110284D01*
X107500D01*
Y72284D02*
Y110284D01*
X65500Y72284D02*
X107500D01*
X71500Y202716D02*
Y240717D01*
X113500D01*
Y202716D02*
Y240717D01*
X71500Y202716D02*
X113500D01*
X266000Y200284D02*
Y238283D01*
X308000D01*
Y200284D02*
Y238283D01*
X266000Y200284D02*
X308000D01*
X266000Y72284D02*
Y110284D01*
X308000D01*
Y72284D02*
Y110284D01*
X266000Y72284D02*
X308000D01*
X7000Y237388D02*
Y231390D01*
X9999D01*
X10999Y232390D01*
Y233389D01*
X9999Y234389D01*
X7000D01*
X9999D01*
X10999Y235389D01*
Y236388D01*
X9999Y237388D01*
X7000D01*
X15997Y231390D02*
X13998D01*
X12998Y232390D01*
Y234389D01*
X13998Y235389D01*
X15997D01*
X16997Y234389D01*
Y233389D01*
X12998D01*
X19996Y235389D02*
X21995D01*
X22995Y234389D01*
Y231390D01*
X19996D01*
X18996Y232390D01*
X19996Y233389D01*
X22995D01*
X24994Y231390D02*
Y235389D01*
X25994D01*
X26994Y234389D01*
Y231390D01*
Y234389D01*
X27993Y235389D01*
X28993Y234389D01*
Y231390D01*
X7000Y227790D02*
Y221792D01*
X9999D01*
X10999Y222792D01*
Y226791D01*
X9999Y227790D01*
X7000D01*
X15997Y221792D02*
X13998D01*
X12998Y222792D01*
Y224791D01*
X13998Y225791D01*
X15997D01*
X16997Y224791D01*
Y223792D01*
X12998D01*
X20996Y219793D02*
X21995D01*
X22995Y220793D01*
Y225791D01*
X19996D01*
X18996Y224791D01*
Y222792D01*
X19996Y221792D01*
X22995D01*
X24994Y225791D02*
Y221792D01*
Y223792D01*
X25994Y224791D01*
X26994Y225791D01*
X27993D01*
X31992D02*
X33991D01*
X34991Y224791D01*
Y221792D01*
X31992D01*
X30992Y222792D01*
X31992Y223792D01*
X34991D01*
X40989Y227790D02*
Y221792D01*
X37990D01*
X36990Y222792D01*
Y224791D01*
X37990Y225791D01*
X40989D01*
X45987Y221792D02*
X43988D01*
X42988Y222792D01*
Y224791D01*
X43988Y225791D01*
X45987D01*
X46987Y224791D01*
Y223792D01*
X42988D01*
X48986Y225791D02*
Y221792D01*
Y223792D01*
X49986Y224791D01*
X50986Y225791D01*
X51986D01*
X7000Y216193D02*
Y210195D01*
X9999D01*
X10999Y211195D01*
Y215194D01*
X9999Y216193D01*
X7000D01*
X12998Y214194D02*
Y210195D01*
Y212195D01*
X13998Y213194D01*
X14997Y214194D01*
X15997D01*
X18996Y210195D02*
X20996D01*
X19996D01*
Y214194D01*
X18996D01*
X23994D02*
X25994Y210195D01*
X27993Y214194D01*
X32992Y210195D02*
X30992D01*
X29993Y211195D01*
Y213194D01*
X30992Y214194D01*
X32992D01*
X33991Y213194D01*
Y212195D01*
X29993D01*
X35991Y214194D02*
Y210195D01*
Y212195D01*
X36990Y213194D01*
X37990Y214194D01*
X38990D01*
X7000Y206596D02*
Y200598D01*
X9999D01*
X10999Y201597D01*
Y202597D01*
X9999Y203597D01*
X7000D01*
X9999D01*
X10999Y204596D01*
Y205596D01*
X9999Y206596D01*
X7000D01*
X13998Y200598D02*
X15997D01*
X16997Y201597D01*
Y203597D01*
X15997Y204596D01*
X13998D01*
X12998Y203597D01*
Y201597D01*
X13998Y200598D01*
X19996Y204596D02*
X21995D01*
X22995Y203597D01*
Y200598D01*
X19996D01*
X18996Y201597D01*
X19996Y202597D01*
X22995D01*
X24994Y204596D02*
Y200598D01*
Y202597D01*
X25994Y203597D01*
X26994Y204596D01*
X27993D01*
X34991Y206596D02*
Y200598D01*
X31992D01*
X30992Y201597D01*
Y203597D01*
X31992Y204596D01*
X34991D01*
X7000Y196998D02*
Y192999D01*
X8999Y191000D01*
X10999Y192999D01*
Y196998D01*
X12998Y191000D02*
Y192000D01*
X13998D01*
Y191000D01*
X12998D01*
X17996D02*
X19996D01*
X18996D01*
Y196998D01*
X17996Y195998D01*
X63500Y246500D02*
Y252498D01*
X66499D01*
X67499Y251498D01*
Y249499D01*
X66499Y248499D01*
X63500D01*
X65499D02*
X67499Y246500D01*
X73497D02*
X69498D01*
X73497Y250499D01*
Y251498D01*
X72497Y252498D01*
X70498D01*
X69498Y251498D01*
X412649Y179348D02*
X410649D01*
X411649D01*
Y174350D01*
X410649Y173350D01*
X409650D01*
X408650Y174350D01*
X418647Y173350D02*
X414648D01*
X418647Y177349D01*
Y178348D01*
X417647Y179348D01*
X415648D01*
X414648Y178348D01*
X435499Y143498D02*
X433499D01*
X434499D01*
Y138500D01*
X433499Y137500D01*
X432500D01*
X431500Y138500D01*
X437498Y137500D02*
X439497D01*
X438498D01*
Y143498D01*
X437498Y142498D01*
X366000Y119798D02*
Y114800D01*
X367000Y113800D01*
X368999D01*
X369999Y114800D01*
Y119798D01*
X371998D02*
X375997D01*
Y118798D01*
X371998Y114800D01*
Y113800D01*
X268000Y119498D02*
Y114500D01*
X269000Y113500D01*
X270999D01*
X271999Y114500D01*
Y119498D01*
X273998Y113500D02*
X275997D01*
X274998D01*
Y119498D01*
X273998Y118498D01*
X170000Y119798D02*
Y114800D01*
X171000Y113800D01*
X172999D01*
X173999Y114800D01*
Y119798D01*
X179997D02*
X175998D01*
Y116799D01*
X177997Y117799D01*
X178997D01*
X179997Y116799D01*
Y114800D01*
X178997Y113800D01*
X176998D01*
X175998Y114800D01*
X66000Y119798D02*
Y114800D01*
X67000Y113800D01*
X68999D01*
X69999Y114800D01*
Y119798D01*
X74997Y113800D02*
Y119798D01*
X71998Y116799D01*
X75997D01*
X366500Y195998D02*
Y191000D01*
X367500Y190000D01*
X369499D01*
X370499Y191000D01*
Y195998D01*
X372498Y194998D02*
X373498Y195998D01*
X375497D01*
X376497Y194998D01*
Y193999D01*
X375497Y192999D01*
X376497Y191999D01*
Y191000D01*
X375497Y190000D01*
X373498D01*
X372498Y191000D01*
Y191999D01*
X373498Y192999D01*
X372498Y193999D01*
Y194998D01*
X373498Y192999D02*
X375497D01*
X266000Y195498D02*
Y190500D01*
X267000Y189500D01*
X268999D01*
X269999Y190500D01*
Y195498D01*
X275997Y189500D02*
X271998D01*
X275997Y193499D01*
Y194498D01*
X274997Y195498D01*
X272998D01*
X271998Y194498D01*
X171000Y195998D02*
Y191000D01*
X172000Y190000D01*
X173999D01*
X174999Y191000D01*
Y195998D01*
X180997D02*
X178997Y194998D01*
X176998Y192999D01*
Y191000D01*
X177998Y190000D01*
X179997D01*
X180997Y191000D01*
Y191999D01*
X179997Y192999D01*
X176998D01*
X72500Y198931D02*
Y193933D01*
X73500Y192933D01*
X75499D01*
X76499Y193933D01*
Y198931D01*
X78498Y197932D02*
X79498Y198931D01*
X81497D01*
X82497Y197932D01*
Y196932D01*
X81497Y195932D01*
X80497D01*
X81497D01*
X82497Y194932D01*
Y193933D01*
X81497Y192933D01*
X79498D01*
X78498Y193933D01*
X10300Y135700D02*
Y141698D01*
X13299D01*
X14299Y140698D01*
Y138699D01*
X13299Y137699D01*
X10300D01*
X12299D02*
X14299Y135700D01*
X16298D02*
X18297D01*
X17298D01*
Y141698D01*
X16298Y140698D01*
X21296D02*
X22296Y141698D01*
X24295D01*
X25295Y140698D01*
Y139699D01*
X24295Y138699D01*
X25295Y137699D01*
Y136700D01*
X24295Y135700D01*
X22296D01*
X21296Y136700D01*
Y137699D01*
X22296Y138699D01*
X21296Y139699D01*
Y140698D01*
X22296Y138699D02*
X24295D01*
X306300Y246500D02*
Y252498D01*
X309299D01*
X310299Y251498D01*
Y249499D01*
X309299Y248499D01*
X306300D01*
X308299D02*
X310299Y246500D01*
X312298D02*
X314297D01*
X313298D01*
Y252498D01*
X312298Y251498D01*
X321295Y246500D02*
X317296D01*
X321295Y250499D01*
Y251498D01*
X320296Y252498D01*
X318296D01*
X317296Y251498D01*
X163000Y49500D02*
Y55498D01*
X165999D01*
X166999Y54498D01*
Y52499D01*
X165999Y51499D01*
X163000D01*
X164999D02*
X166999Y49500D01*
X168998D02*
X170997D01*
X169998D01*
Y55498D01*
X168998Y54498D01*
X173996D02*
X174996Y55498D01*
X176996D01*
X177995Y54498D01*
Y53499D01*
X176996Y52499D01*
X175996D01*
X176996D01*
X177995Y51499D01*
Y50500D01*
X176996Y49500D01*
X174996D01*
X173996Y50500D01*
X81500Y49500D02*
Y55498D01*
X84499D01*
X85499Y54498D01*
Y52499D01*
X84499Y51499D01*
X81500D01*
X83499D02*
X85499Y49500D01*
X87498D02*
X89497D01*
X88498D01*
Y55498D01*
X87498Y54498D01*
X92496Y55498D02*
X96495D01*
Y54498D01*
X92496Y50500D01*
Y49500D01*
X348500D02*
Y55498D01*
X351499D01*
X352499Y54498D01*
Y52499D01*
X351499Y51499D01*
X348500D01*
X350499D02*
X352499Y49500D01*
X354498D02*
X356497D01*
X355498D01*
Y55498D01*
X354498Y54498D01*
X363495Y55498D02*
X361496Y54498D01*
X359496Y52499D01*
Y50500D01*
X360496Y49500D01*
X362495D01*
X363495Y50500D01*
Y51499D01*
X362495Y52499D01*
X359496D01*
X207300Y246500D02*
Y252498D01*
X210299D01*
X211299Y251498D01*
Y249499D01*
X210299Y248499D01*
X207300D01*
X209299D02*
X211299Y246500D01*
X213298D02*
X215297D01*
X214298D01*
Y252498D01*
X213298Y251498D01*
X218296Y246500D02*
X220296D01*
X219296D01*
Y252498D01*
X218296Y251498D01*
X262500Y46500D02*
Y52498D01*
X265499D01*
X266499Y51498D01*
Y49499D01*
X265499Y48499D01*
X262500D01*
X264499D02*
X266499Y46500D01*
X268498D02*
X270497D01*
X269498D01*
Y52498D01*
X268498Y51498D01*
X277495Y52498D02*
X273496D01*
Y49499D01*
X275496Y50499D01*
X276496D01*
X277495Y49499D01*
Y47500D01*
X276496Y46500D01*
X274496D01*
X273496Y47500D01*
X394800Y246000D02*
Y251998D01*
X397799D01*
X398799Y250998D01*
Y248999D01*
X397799Y247999D01*
X394800D01*
X396799D02*
X398799Y246000D01*
X400798D02*
X402797D01*
X401798D01*
Y251998D01*
X400798Y250998D01*
X408795Y246000D02*
Y251998D01*
X405796Y248999D01*
X409795D01*
X104000Y247000D02*
Y252998D01*
X106999D01*
X107999Y251998D01*
Y249999D01*
X106999Y248999D01*
X104000D01*
X105999D02*
X107999Y247000D01*
X109998D02*
X111997D01*
X110998D01*
Y252998D01*
X109998Y251998D01*
X114996D02*
X115996Y252998D01*
X117996D01*
X118995Y251998D01*
Y248000D01*
X117996Y247000D01*
X115996D01*
X114996Y248000D01*
Y251998D01*
X65500Y50500D02*
Y56498D01*
X68499D01*
X69499Y55498D01*
Y53499D01*
X68499Y52499D01*
X65500D01*
X67499D02*
X69499Y50500D01*
X71498D02*
X73497D01*
X72498D01*
Y56498D01*
X71498Y55498D01*
X397000Y49500D02*
Y55498D01*
X399999D01*
X400999Y54498D01*
Y52499D01*
X399999Y51499D01*
X397000D01*
X398999D02*
X400999Y49500D01*
X402998Y55498D02*
X406997D01*
Y54498D01*
X402998Y50500D01*
Y49500D01*
X308000Y46000D02*
Y51998D01*
X310999D01*
X311999Y50998D01*
Y48999D01*
X310999Y47999D01*
X308000D01*
X309999D02*
X311999Y46000D01*
X317997Y51998D02*
X313998D01*
Y48999D01*
X315997Y49999D01*
X316997D01*
X317997Y48999D01*
Y47000D01*
X316997Y46000D01*
X314998D01*
X313998Y47000D01*
X211000Y48000D02*
Y53998D01*
X213999D01*
X214999Y52998D01*
Y50999D01*
X213999Y49999D01*
X211000D01*
X212999D02*
X214999Y48000D01*
X216998Y52998D02*
X217998Y53998D01*
X219997D01*
X220997Y52998D01*
Y51999D01*
X219997Y50999D01*
X220997Y49999D01*
Y49000D01*
X219997Y48000D01*
X217998D01*
X216998Y49000D01*
Y49999D01*
X217998Y50999D01*
X216998Y51999D01*
Y52998D01*
X217998Y50999D02*
X219997D01*
X128500Y49500D02*
Y55498D01*
X131499D01*
X132499Y54498D01*
Y52499D01*
X131499Y51499D01*
X128500D01*
X130499D02*
X132499Y49500D01*
X138497Y55498D02*
X136497Y54498D01*
X134498Y52499D01*
Y50500D01*
X135498Y49500D01*
X137497D01*
X138497Y50500D01*
Y51499D01*
X137497Y52499D01*
X134498D01*
X349800Y246000D02*
Y251998D01*
X352799D01*
X353799Y250998D01*
Y248999D01*
X352799Y247999D01*
X349800D01*
X351799D02*
X353799Y246000D01*
X355798Y250998D02*
X356798Y251998D01*
X358797D01*
X359797Y250998D01*
Y249999D01*
X358797Y248999D01*
X357797D01*
X358797D01*
X359797Y247999D01*
Y247000D01*
X358797Y246000D01*
X356798D01*
X355798Y247000D01*
X261300Y246500D02*
Y252498D01*
X264299D01*
X265299Y251498D01*
Y249499D01*
X264299Y248499D01*
X261300D01*
X263299D02*
X265299Y246500D01*
X267298Y247500D02*
X268298Y246500D01*
X270297D01*
X271297Y247500D01*
Y251498D01*
X270297Y252498D01*
X268298D01*
X267298Y251498D01*
Y250499D01*
X268298Y249499D01*
X271297D01*
X162300Y246500D02*
Y252498D01*
X165299D01*
X166299Y251498D01*
Y249499D01*
X165299Y248499D01*
X162300D01*
X164299D02*
X166299Y246500D01*
X171297D02*
Y252498D01*
X168298Y249499D01*
X172297D01*
X8900Y173898D02*
Y167900D01*
X11899D01*
X12899Y168900D01*
Y172898D01*
X11899Y173898D01*
X8900D01*
X14898Y167900D02*
X16897D01*
X15898D01*
Y173898D01*
X14898Y172898D01*
X19896D02*
X20896Y173898D01*
X22896D01*
X23895Y172898D01*
Y168900D01*
X22896Y167900D01*
X20896D01*
X19896Y168900D01*
Y172898D01*
X375000Y54949D02*
Y48951D01*
X377999D01*
X378999Y49951D01*
Y53949D01*
X377999Y54949D01*
X375000D01*
X380998Y49951D02*
X381998Y48951D01*
X383997D01*
X384997Y49951D01*
Y53949D01*
X383997Y54949D01*
X381998D01*
X380998Y53949D01*
Y52950D01*
X381998Y51950D01*
X384997D01*
X106000Y55498D02*
Y49500D01*
X108999D01*
X109999Y50500D01*
Y54498D01*
X108999Y55498D01*
X106000D01*
X111998Y54498D02*
X112998Y55498D01*
X114997D01*
X115997Y54498D01*
Y53499D01*
X114997Y52499D01*
X115997Y51499D01*
Y50500D01*
X114997Y49500D01*
X112998D01*
X111998Y50500D01*
Y51499D01*
X112998Y52499D01*
X111998Y53499D01*
Y54498D01*
X112998Y52499D02*
X114997D01*
X371843Y251998D02*
Y246000D01*
X374842D01*
X375841Y247000D01*
Y250998D01*
X374842Y251998D01*
X371843D01*
X377841D02*
X381839D01*
Y250998D01*
X377841Y247000D01*
Y246000D01*
X184000Y54449D02*
Y48451D01*
X186999D01*
X187999Y49450D01*
Y53449D01*
X186999Y54449D01*
X184000D01*
X193997Y48451D02*
X189998D01*
X193997Y52450D01*
Y53449D01*
X192997Y54449D01*
X190998D01*
X189998Y53449D01*
X281000Y252498D02*
Y246500D01*
X283999D01*
X284999Y247500D01*
Y251498D01*
X283999Y252498D01*
X281000D01*
X290997D02*
X288997Y251498D01*
X286998Y249499D01*
Y247500D01*
X287998Y246500D01*
X289997D01*
X290997Y247500D01*
Y248499D01*
X289997Y249499D01*
X286998D01*
X184000Y253498D02*
Y247500D01*
X186999D01*
X187999Y248500D01*
Y252498D01*
X186999Y253498D01*
X184000D01*
X193997D02*
X189998D01*
Y250499D01*
X191997Y251499D01*
X192997D01*
X193997Y250499D01*
Y248500D01*
X192997Y247500D01*
X190998D01*
X189998Y248500D01*
X285500Y52949D02*
Y46951D01*
X288499D01*
X289499Y47951D01*
Y51949D01*
X288499Y52949D01*
X285500D01*
X294497Y46951D02*
Y52949D01*
X291498Y49950D01*
X295497D01*
X86000Y252498D02*
Y246500D01*
X88999D01*
X89999Y247500D01*
Y251498D01*
X88999Y252498D01*
X86000D01*
X91998Y251498D02*
X92998Y252498D01*
X94997D01*
X95997Y251498D01*
Y250499D01*
X94997Y249499D01*
X93997D01*
X94997D01*
X95997Y248499D01*
Y247500D01*
X94997Y246500D01*
X92998D01*
X91998Y247500D01*
X46500Y57998D02*
Y52000D01*
X49499D01*
X50499Y53000D01*
Y56998D01*
X49499Y57998D01*
X46500D01*
X52498Y52000D02*
X54497D01*
X53498D01*
Y57998D01*
X52498Y56998D01*
X127499Y211498D02*
X126499Y212498D01*
X124500D01*
X123500Y211498D01*
Y207500D01*
X124500Y206500D01*
X126499D01*
X127499Y207500D01*
X132497Y206500D02*
Y212498D01*
X129498Y209499D01*
X133497D01*
X116499Y96498D02*
X115499Y97498D01*
X113500D01*
X112500Y96498D01*
Y92500D01*
X113500Y91500D01*
X115499D01*
X116499Y92500D01*
X118498Y96498D02*
X119498Y97498D01*
X121497D01*
X122497Y96498D01*
Y95499D01*
X121497Y94499D01*
X120497D01*
X121497D01*
X122497Y93499D01*
Y92500D01*
X121497Y91500D01*
X119498D01*
X118498Y92500D01*
X40999Y177998D02*
X39999Y178998D01*
X38000D01*
X37000Y177998D01*
Y174000D01*
X38000Y173000D01*
X39999D01*
X40999Y174000D01*
X46997Y173000D02*
X42998D01*
X46997Y176999D01*
Y177998D01*
X45997Y178998D01*
X43998D01*
X42998Y177998D01*
X28999Y105998D02*
X27999Y106998D01*
X26000D01*
X25000Y105998D01*
Y102000D01*
X26000Y101000D01*
X27999D01*
X28999Y102000D01*
X30998Y101000D02*
X32997D01*
X31998D01*
Y106998D01*
X30998Y105998D01*
X227499Y205498D02*
X226499Y206498D01*
X224500D01*
X223500Y205498D01*
Y201500D01*
X224500Y200500D01*
X226499D01*
X227499Y201500D01*
X233497Y206498D02*
X229498D01*
Y203499D01*
X231497Y204499D01*
X232497D01*
X233497Y203499D01*
Y201500D01*
X232497Y200500D01*
X230498D01*
X229498Y201500D01*
X220499Y103998D02*
X219499Y104998D01*
X217500D01*
X216500Y103998D01*
Y100000D01*
X217500Y99000D01*
X219499D01*
X220499Y100000D01*
X226497Y104998D02*
X224497Y103998D01*
X222498Y101999D01*
Y100000D01*
X223498Y99000D01*
X225497D01*
X226497Y100000D01*
Y100999D01*
X225497Y101999D01*
X222498D01*
X322499Y212498D02*
X321499Y213498D01*
X319500D01*
X318500Y212498D01*
Y208500D01*
X319500Y207500D01*
X321499D01*
X322499Y208500D01*
X324498Y213498D02*
X328497D01*
Y212498D01*
X324498Y208500D01*
Y207500D01*
X316499Y89998D02*
X315499Y90998D01*
X313500D01*
X312500Y89998D01*
Y86000D01*
X313500Y85000D01*
X315499D01*
X316499Y86000D01*
X318498Y89998D02*
X319498Y90998D01*
X321497D01*
X322497Y89998D01*
Y88999D01*
X321497Y87999D01*
X322497Y86999D01*
Y86000D01*
X321497Y85000D01*
X319498D01*
X318498Y86000D01*
Y86999D01*
X319498Y87999D01*
X318498Y88999D01*
Y89998D01*
X319498Y87999D02*
X321497D01*
X251000Y93999D02*
X254999D01*
X252999Y95998D02*
Y92000D01*
X347000Y78999D02*
X350999D01*
X348999Y80998D02*
Y77000D01*
X146000Y84999D02*
X149999D01*
X147999Y86998D02*
Y83000D01*
X56500Y93999D02*
X60499D01*
X58499Y95998D02*
Y92000D01*
X70500Y183999D02*
X74499D01*
X72499Y185998D02*
Y182000D01*
X151500Y207499D02*
X155499D01*
X153499Y209498D02*
Y205500D01*
X250500Y201999D02*
X254499D01*
X252499Y203998D02*
Y200000D01*
X345500Y207999D02*
X349499D01*
X347499Y209998D02*
Y206000D01*
D35*
X13847Y161709D02*
G03*
X13847Y150291I0J-5709D01*
G01*
X372291Y16346D02*
G03*
X383709Y16346I5709J0D01*
G01*
X104291Y15396D02*
G03*
X115709Y15396I5709J0D01*
G01*
X381709Y289215D02*
G03*
X370291Y289215I-5709J0D01*
G01*
X293209Y289715D02*
G03*
X281791Y289715I-5709J0D01*
G01*
X194209D02*
G03*
X182791Y289715I-5709J0D01*
G01*
X281791Y14346D02*
G03*
X293209Y14346I5709J0D01*
G01*
X96709Y289715D02*
G03*
X85291Y289715I-5709J0D01*
G01*
X182791Y14346D02*
G03*
X194209Y14346I5709J0D01*
G01*
X13847Y55709D02*
G03*
X13847Y44291I0J-5709D01*
G01*
X43374Y146500D02*
Y165500D01*
X18177Y146500D02*
X43374D01*
X18177Y165500D02*
X43374D01*
X13847Y150291D02*
X18177D01*
X13847Y161709D02*
X18177D01*
Y146500D02*
Y165500D01*
X368500Y45874D02*
X387500D01*
Y20677D02*
Y45874D01*
X368500Y20677D02*
Y45874D01*
X383709Y16346D02*
Y20677D01*
X372291Y16346D02*
Y20677D01*
X368500D02*
X387500D01*
X100500Y44923D02*
X119500D01*
Y19726D02*
Y44923D01*
X100500Y19726D02*
Y44923D01*
X115709Y15396D02*
Y19726D01*
X104291Y15396D02*
Y19726D01*
X100500D02*
X119500D01*
X366500Y259687D02*
X385500D01*
X366500D02*
Y284884D01*
X385500Y259687D02*
Y284884D01*
X370291D02*
Y289215D01*
X381709Y284884D02*
Y289215D01*
X366500Y284884D02*
X385500D01*
X278000Y260187D02*
X297000D01*
X278000D02*
Y285384D01*
X297000Y260187D02*
Y285384D01*
X281791D02*
Y289715D01*
X293209Y285384D02*
Y289715D01*
X278000Y285384D02*
X297000D01*
X179000Y260187D02*
X198000D01*
X179000D02*
Y285384D01*
X198000Y260187D02*
Y285384D01*
X182791D02*
Y289715D01*
X194209Y285384D02*
Y289715D01*
X179000Y285384D02*
X198000D01*
X278000Y43874D02*
X297000D01*
Y18677D02*
Y43874D01*
X278000Y18677D02*
Y43874D01*
X293209Y14346D02*
Y18677D01*
X281791Y14346D02*
Y18677D01*
X278000D02*
X297000D01*
X81500Y260187D02*
X100500D01*
X81500D02*
Y285384D01*
X100500Y260187D02*
Y285384D01*
X85291D02*
Y289715D01*
X96709Y285384D02*
Y289715D01*
X81500Y285384D02*
X100500D01*
X179000Y43874D02*
X198000D01*
Y18677D02*
Y43874D01*
X179000Y18677D02*
Y43874D01*
X194209Y14346D02*
Y18677D01*
X182791Y14346D02*
Y18677D01*
X179000D02*
X198000D01*
X43374Y40500D02*
Y59500D01*
X18177Y40500D02*
X43374D01*
X18177Y59500D02*
X43374D01*
X13847Y44291D02*
X18177D01*
X13847Y55709D02*
X18177D01*
Y40500D02*
Y59500D01*
D36*
X331339Y87226D02*
G03*
X345140Y86268I7161J3274D01*
G01*
Y94732D02*
G03*
X331339Y93774I-6640J-4232D01*
G01*
X330339Y196226D02*
G03*
X344140Y195268I7161J3274D01*
G01*
Y203732D02*
G03*
X330339Y202774I-6640J-4232D01*
G01*
X235339Y99726D02*
G03*
X249140Y98768I7161J3274D01*
G01*
Y107232D02*
G03*
X235339Y106274I-6640J-4232D01*
G01*
Y189226D02*
G03*
X249140Y188268I7161J3274D01*
G01*
Y196732D02*
G03*
X235339Y195774I-6640J-4232D01*
G01*
X135839Y194226D02*
G03*
X149640Y193268I7161J3274D01*
G01*
Y201732D02*
G03*
X135839Y200774I-6640J-4232D01*
G01*
X129839Y92226D02*
G03*
X143640Y91268I7161J3274D01*
G01*
Y99732D02*
G03*
X129839Y98774I-6640J-4232D01*
G01*
X54839Y171726D02*
G03*
X68640Y170768I7161J3274D01*
G01*
Y179232D02*
G03*
X54839Y178274I-6640J-4232D01*
G01*
X40839Y101226D02*
G03*
X54640Y100268I7161J3274D01*
G01*
Y108732D02*
G03*
X40839Y107774I-6640J-4232D01*
G01*
X18100Y128000D02*
X19000D01*
X39000D02*
X39900D01*
X19000D02*
Y131000D01*
X39000D01*
Y125000D02*
Y131000D01*
X19000Y125000D02*
X39000D01*
X19000D02*
Y128000D01*
X87500Y15600D02*
Y16500D01*
Y36500D02*
Y37400D01*
X84500Y16500D02*
X87500D01*
X84500D02*
Y36500D01*
X90500D01*
Y16500D02*
Y36500D01*
X87500Y16500D02*
X90500D01*
X355500Y17100D02*
Y18000D01*
Y38000D02*
Y38900D01*
X352500Y18000D02*
X355500D01*
X352500D02*
Y38000D01*
X358500D01*
Y18000D02*
Y38000D01*
X355500Y18000D02*
X358500D01*
X265000Y14100D02*
Y15000D01*
Y35000D02*
Y35900D01*
X262000Y15000D02*
X265000D01*
X262000D02*
Y35000D01*
X268000D01*
Y15000D02*
Y35000D01*
X265000Y15000D02*
X268000D01*
X398500Y285500D02*
Y286400D01*
Y264600D02*
Y265500D01*
Y285500D02*
X401500D01*
Y265500D02*
Y285500D01*
X395500Y265500D02*
X401500D01*
X395500D02*
Y285500D01*
X398500D01*
X166000Y15600D02*
Y16500D01*
Y36500D02*
Y37400D01*
X163000Y16500D02*
X166000D01*
X163000D02*
Y36500D01*
X169000D01*
Y16500D02*
Y36500D01*
X166000Y16500D02*
X169000D01*
X310000Y286000D02*
Y286900D01*
Y265100D02*
Y266000D01*
Y286000D02*
X313000D01*
Y266000D02*
Y286000D01*
X307000Y266000D02*
X313000D01*
X307000D02*
Y286000D01*
X310000D01*
X211000D02*
Y286900D01*
Y265100D02*
Y266000D01*
Y286000D02*
X214000D01*
Y266000D02*
Y286000D01*
X208000Y266000D02*
X214000D01*
X208000D02*
Y286000D01*
X211000D01*
X113500Y285500D02*
Y286400D01*
Y264600D02*
Y265500D01*
Y285500D02*
X116500D01*
Y265500D02*
Y285500D01*
X110500Y265500D02*
X116500D01*
X110500D02*
Y285500D01*
X113500D01*
X265000Y286000D02*
Y286900D01*
Y265100D02*
Y266000D01*
Y286000D02*
X268000D01*
Y266000D02*
Y286000D01*
X262000Y266000D02*
X268000D01*
X262000D02*
Y286000D01*
X265000D01*
X213000Y15600D02*
Y16500D01*
Y36500D02*
Y37400D01*
X210000Y16500D02*
X213000D01*
X210000D02*
Y36500D01*
X216000D01*
Y16500D02*
Y36500D01*
X213000Y16500D02*
X216000D01*
X400500Y17100D02*
Y18000D01*
Y38000D02*
Y38900D01*
X397500Y18000D02*
X400500D01*
X397500D02*
Y38000D01*
X403500D01*
Y18000D02*
Y38000D01*
X400500Y18000D02*
X403500D01*
X132500Y15600D02*
Y16500D01*
Y36500D02*
Y37400D01*
X129500Y16500D02*
X132500D01*
X129500D02*
Y36500D01*
X135500D01*
Y16500D02*
Y36500D01*
X132500Y16500D02*
X135500D01*
X309500Y13600D02*
Y14500D01*
Y34500D02*
Y35400D01*
X306500Y14500D02*
X309500D01*
X306500D02*
Y34500D01*
X312500D01*
Y14500D02*
Y34500D01*
X309500Y14500D02*
X312500D01*
X166000Y286000D02*
Y286900D01*
Y265100D02*
Y266000D01*
Y286000D02*
X169000D01*
Y266000D02*
Y286000D01*
X163000Y266000D02*
X169000D01*
X163000D02*
Y286000D01*
X166000D01*
X353500Y285500D02*
Y286400D01*
Y264600D02*
Y265500D01*
Y285500D02*
X356500D01*
Y265500D02*
Y285500D01*
X350500Y265500D02*
X356500D01*
X350500D02*
Y285500D01*
X353500D01*
X68500Y284500D02*
Y285400D01*
Y263600D02*
Y264500D01*
Y284500D02*
X71500D01*
Y264500D02*
Y284500D01*
X65500Y264500D02*
X71500D01*
X65500D02*
Y284500D01*
X68500D01*
X69500Y15600D02*
Y16500D01*
Y36500D02*
Y37400D01*
X66500Y16500D02*
X69500D01*
X66500D02*
Y36500D01*
X72500D01*
Y16500D02*
Y36500D01*
X69500Y16500D02*
X72500D01*
X408000Y170000D02*
X418000D01*
Y150000D02*
Y170000D01*
X408000Y150000D02*
X418000D01*
X408000D02*
Y170000D01*
X429500Y133000D02*
X439500D01*
Y113000D02*
Y133000D01*
X429500Y113000D02*
X439500D01*
X429500D02*
Y133000D01*
M02*
