G04 Layer_Color=8388736*
%FSLAX25Y25*%
%MOIN*%
G70*
G01*
G75*
%ADD37R,0.07887X0.07887*%
%ADD38C,0.07887*%
%ADD39C,0.06312*%
%ADD40C,0.33477*%
%ADD41R,0.06706X0.06706*%
%ADD42C,0.06706*%
%ADD43R,0.06706X0.06706*%
%ADD44R,0.07099X0.07099*%
%ADD45C,0.07099*%
%ADD46R,0.07099X0.07099*%
%ADD47C,0.06115*%
%ADD48R,0.06115X0.06115*%
%ADD49C,0.05800*%
D37*
X371500Y206929D02*
D03*
Y77929D02*
D03*
X175500Y205929D02*
D03*
Y77929D02*
D03*
X71500D02*
D03*
X77500Y208362D02*
D03*
X272000Y205929D02*
D03*
Y77929D02*
D03*
D38*
X376500Y222284D02*
D03*
X381500Y206929D02*
D03*
X386500Y222284D02*
D03*
X391500Y206929D02*
D03*
X396500Y222284D02*
D03*
X401500Y206929D02*
D03*
X376500Y93283D02*
D03*
X381500Y77929D02*
D03*
X386500Y93283D02*
D03*
X391500Y77929D02*
D03*
X396500Y93283D02*
D03*
X401500Y77929D02*
D03*
X180500Y221284D02*
D03*
X185500Y205929D02*
D03*
X190500Y221284D02*
D03*
X195500Y205929D02*
D03*
X200500Y221284D02*
D03*
X205500Y205929D02*
D03*
X180500Y93283D02*
D03*
X185500Y77929D02*
D03*
X190500Y93283D02*
D03*
X195500Y77929D02*
D03*
X200500Y93283D02*
D03*
X205500Y77929D02*
D03*
X76500Y93283D02*
D03*
X81500Y77929D02*
D03*
X86500Y93283D02*
D03*
X91500Y77929D02*
D03*
X96500Y93283D02*
D03*
X101500Y77929D02*
D03*
X82500Y223716D02*
D03*
X87500Y208362D02*
D03*
X92500Y223716D02*
D03*
X97500Y208362D02*
D03*
X102500Y223716D02*
D03*
X107500Y208362D02*
D03*
X277000Y221284D02*
D03*
X282000Y205929D02*
D03*
X287000Y221284D02*
D03*
X292000Y205929D02*
D03*
X297000Y221284D02*
D03*
X302000Y205929D02*
D03*
X277000Y93283D02*
D03*
X282000Y77929D02*
D03*
X287000Y93283D02*
D03*
X292000Y77929D02*
D03*
X297000Y93283D02*
D03*
X302000Y77929D02*
D03*
D39*
X45000Y128000D02*
D03*
X13000D02*
D03*
X87500Y42500D02*
D03*
Y10500D02*
D03*
X355500Y44000D02*
D03*
Y12000D02*
D03*
X265000Y41000D02*
D03*
Y9000D02*
D03*
X398500Y259500D02*
D03*
Y291500D02*
D03*
X166000Y42500D02*
D03*
Y10500D02*
D03*
X310000Y260000D02*
D03*
Y292000D02*
D03*
X211000Y260000D02*
D03*
Y292000D02*
D03*
X113500Y259500D02*
D03*
Y291500D02*
D03*
X265000Y260000D02*
D03*
Y292000D02*
D03*
X213000Y42500D02*
D03*
Y10500D02*
D03*
X400500Y44000D02*
D03*
Y12000D02*
D03*
X132500Y42500D02*
D03*
Y10500D02*
D03*
X309500Y40500D02*
D03*
Y8500D02*
D03*
X166000Y260000D02*
D03*
Y292000D02*
D03*
X353500Y259500D02*
D03*
Y291500D02*
D03*
X68500Y258500D02*
D03*
Y290500D02*
D03*
X69500Y42500D02*
D03*
Y10500D02*
D03*
D40*
X428000Y21000D02*
D03*
X20500D02*
D03*
X428000Y279000D02*
D03*
X20500D02*
D03*
D41*
X78500Y158000D02*
D03*
X205000Y162000D02*
D03*
D42*
X78500Y148000D02*
D03*
X88500Y158000D02*
D03*
Y148000D02*
D03*
X98500Y158000D02*
D03*
Y148000D02*
D03*
X108500Y158000D02*
D03*
Y148000D02*
D03*
X118500Y158000D02*
D03*
Y148000D02*
D03*
X128500Y158000D02*
D03*
Y148000D02*
D03*
X138500Y158000D02*
D03*
Y148000D02*
D03*
X148500Y158000D02*
D03*
Y148000D02*
D03*
X375000Y152000D02*
D03*
Y162000D02*
D03*
X365000Y152000D02*
D03*
Y162000D02*
D03*
X355000Y152000D02*
D03*
Y162000D02*
D03*
X345000Y152000D02*
D03*
Y162000D02*
D03*
X335000Y152000D02*
D03*
Y162000D02*
D03*
X325000Y152000D02*
D03*
Y162000D02*
D03*
X315000Y152000D02*
D03*
Y162000D02*
D03*
X305000Y152000D02*
D03*
Y162000D02*
D03*
X295000Y152000D02*
D03*
Y162000D02*
D03*
X285000Y152000D02*
D03*
Y162000D02*
D03*
X275000Y152000D02*
D03*
Y162000D02*
D03*
X265000Y152000D02*
D03*
Y162000D02*
D03*
X255000Y152000D02*
D03*
Y162000D02*
D03*
X245000Y152000D02*
D03*
Y162000D02*
D03*
X235000Y152000D02*
D03*
Y162000D02*
D03*
X225000Y152000D02*
D03*
Y162000D02*
D03*
X215000Y152000D02*
D03*
Y162000D02*
D03*
X205000Y152000D02*
D03*
X413000Y165000D02*
D03*
X434500Y128000D02*
D03*
D43*
X413000Y155000D02*
D03*
X434500Y118000D02*
D03*
D44*
X35500Y151000D02*
D03*
Y45000D02*
D03*
D45*
Y161000D02*
D03*
X373000Y38000D02*
D03*
X105000Y37049D02*
D03*
X381000Y267561D02*
D03*
X292500Y268061D02*
D03*
X193500D02*
D03*
X282500Y36000D02*
D03*
X96000Y268061D02*
D03*
X183500Y36000D02*
D03*
X35500Y55000D02*
D03*
D46*
X383000Y38000D02*
D03*
X115000Y37049D02*
D03*
X371000Y267561D02*
D03*
X282500Y268061D02*
D03*
X183500D02*
D03*
X292500Y36000D02*
D03*
X86000Y268061D02*
D03*
X193500Y36000D02*
D03*
D47*
X328658Y90500D02*
D03*
X327658Y199500D02*
D03*
X232658Y103000D02*
D03*
Y192500D02*
D03*
X133158Y197500D02*
D03*
X127157Y95500D02*
D03*
X52157Y175000D02*
D03*
X38157Y104500D02*
D03*
D48*
X348342Y90500D02*
D03*
X347342Y199500D02*
D03*
X252343Y103000D02*
D03*
Y192500D02*
D03*
X152842Y197500D02*
D03*
X146843Y95500D02*
D03*
X71842Y175000D02*
D03*
X57842Y104500D02*
D03*
D49*
X311000Y98000D02*
D03*
X299000Y174000D02*
D03*
M02*
