G04 Layer_Physical_Order=3*
G04 Layer_Color=128*
%FSLAX25Y25*%
%MOIN*%
G70*
G01*
G75*
%ADD10C,0.01000*%
%ADD24C,0.04000*%
%ADD25C,0.08331*%
G04:AMPARAMS|DCode=26|XSize=103.307mil|YSize=103.307mil|CornerRadius=0mil|HoleSize=0mil|Usage=FLASHONLY|Rotation=0.000|XOffset=0mil|YOffset=0mil|HoleType=Round|Shape=Relief|Width=10mil|Gap=10mil|Entries=4|*
%AMTHD26*
7,0,0,0.10331,0.08331,0.01000,45*
%
%ADD26THD26*%
%ADD27C,0.07347*%
%ADD28C,0.16598*%
%ADD29C,0.07543*%
G04:AMPARAMS|DCode=30|XSize=95.433mil|YSize=95.433mil|CornerRadius=0mil|HoleSize=0mil|Usage=FLASHONLY|Rotation=0.000|XOffset=0mil|YOffset=0mil|HoleType=Round|Shape=Relief|Width=10mil|Gap=10mil|Entries=4|*
%AMTHD30*
7,0,0,0.09543,0.07543,0.01000,45*
%
%ADD30THD30*%
%ADD31C,0.07150*%
G04:AMPARAMS|DCode=32|XSize=91.496mil|YSize=91.496mil|CornerRadius=0mil|HoleSize=0mil|Usage=FLASHONLY|Rotation=0.000|XOffset=0mil|YOffset=0mil|HoleType=Round|Shape=Relief|Width=10mil|Gap=10mil|Entries=4|*
%AMTHD32*
7,0,0,0.09150,0.07150,0.01000,45*
%
%ADD32THD32*%
%ADD33C,0.06800*%
G04:AMPARAMS|DCode=34|XSize=93.465mil|YSize=93.465mil|CornerRadius=0mil|HoleSize=0mil|Usage=FLASHONLY|Rotation=0.000|XOffset=0mil|YOffset=0mil|HoleType=Round|Shape=Relief|Width=10mil|Gap=10mil|Entries=4|*
%AMTHD34*
7,0,0,0.09347,0.07347,0.01000,45*
%
%ADD34THD34*%
D10*
X1500Y242000D02*
X424000D01*
X-1000Y62000D02*
X424000D01*
Y242000D01*
D24*
X0Y0D02*
X450000D01*
Y300000D01*
X0D02*
X450000D01*
X0Y0D02*
Y300000D01*
D25*
X371500Y206929D02*
D03*
X376500Y222284D02*
D03*
X381500Y206929D02*
D03*
X386500Y222284D02*
D03*
X391500Y206929D02*
D03*
X401500D02*
D03*
X371500Y77929D02*
D03*
X376500Y93283D02*
D03*
X381500Y77929D02*
D03*
X386500Y93283D02*
D03*
X391500Y77929D02*
D03*
X401500D02*
D03*
X175500Y205929D02*
D03*
X180500Y221284D02*
D03*
X185500Y205929D02*
D03*
X190500Y221284D02*
D03*
X195500Y205929D02*
D03*
X205500D02*
D03*
X175500Y77929D02*
D03*
X180500Y93283D02*
D03*
X185500Y77929D02*
D03*
X190500Y93283D02*
D03*
X195500Y77929D02*
D03*
X205500D02*
D03*
X71500D02*
D03*
X76500Y93283D02*
D03*
X81500Y77929D02*
D03*
X86500Y93283D02*
D03*
X91500Y77929D02*
D03*
X101500D02*
D03*
X77500Y208362D02*
D03*
X82500Y223716D02*
D03*
X87500Y208362D02*
D03*
X92500Y223716D02*
D03*
X97500Y208362D02*
D03*
X107500D02*
D03*
X272000Y205929D02*
D03*
X277000Y221284D02*
D03*
X282000Y205929D02*
D03*
X287000Y221284D02*
D03*
X292000Y205929D02*
D03*
X302000D02*
D03*
X272000Y77929D02*
D03*
X277000Y93283D02*
D03*
X282000Y77929D02*
D03*
X287000Y93283D02*
D03*
X292000Y77929D02*
D03*
X302000D02*
D03*
D26*
X396500Y222284D02*
D03*
Y93283D02*
D03*
X200500Y221284D02*
D03*
Y93283D02*
D03*
X96500D02*
D03*
X102500Y223716D02*
D03*
X297000Y221284D02*
D03*
Y93283D02*
D03*
D27*
X45000Y128000D02*
D03*
X87500Y42500D02*
D03*
X355500Y44000D02*
D03*
X265000Y41000D02*
D03*
X398500Y259500D02*
D03*
X166000Y42500D02*
D03*
X310000Y260000D02*
D03*
X211000D02*
D03*
X113500Y259500D02*
D03*
X265000Y260000D02*
D03*
X213000Y42500D02*
D03*
X400500Y44000D02*
D03*
X132500Y42500D02*
D03*
X309500Y40500D02*
D03*
X166000Y260000D02*
D03*
X353500Y259500D02*
D03*
X68500Y258500D02*
D03*
X69500Y42500D02*
D03*
D28*
X428000Y21000D02*
D03*
X20500D02*
D03*
X428000Y279000D02*
D03*
X20500D02*
D03*
D29*
X78500Y158000D02*
D03*
Y148000D02*
D03*
X88500Y158000D02*
D03*
Y148000D02*
D03*
X98500Y158000D02*
D03*
Y148000D02*
D03*
X108500Y158000D02*
D03*
Y148000D02*
D03*
X118500Y158000D02*
D03*
Y148000D02*
D03*
X128500Y158000D02*
D03*
Y148000D02*
D03*
X138500Y158000D02*
D03*
Y148000D02*
D03*
X148500Y158000D02*
D03*
Y148000D02*
D03*
X375000Y152000D02*
D03*
Y162000D02*
D03*
X365000Y152000D02*
D03*
Y162000D02*
D03*
X355000Y152000D02*
D03*
Y162000D02*
D03*
X345000Y152000D02*
D03*
Y162000D02*
D03*
X335000Y152000D02*
D03*
Y162000D02*
D03*
X325000Y152000D02*
D03*
Y162000D02*
D03*
X315000Y152000D02*
D03*
Y162000D02*
D03*
X305000Y152000D02*
D03*
Y162000D02*
D03*
X295000Y152000D02*
D03*
Y162000D02*
D03*
X285000Y152000D02*
D03*
Y162000D02*
D03*
X275000Y152000D02*
D03*
Y162000D02*
D03*
X265000Y152000D02*
D03*
Y162000D02*
D03*
X255000Y152000D02*
D03*
Y162000D02*
D03*
X245000Y152000D02*
D03*
Y162000D02*
D03*
X235000Y152000D02*
D03*
Y162000D02*
D03*
X225000Y152000D02*
D03*
Y162000D02*
D03*
X215000Y152000D02*
D03*
Y162000D02*
D03*
X205000Y152000D02*
D03*
Y162000D02*
D03*
X413000Y155000D02*
D03*
X434500Y118000D02*
D03*
D30*
X413000Y165000D02*
D03*
X434500Y128000D02*
D03*
D31*
X35500Y151000D02*
D03*
Y161000D02*
D03*
X383000Y38000D02*
D03*
X373000D02*
D03*
X115000Y37049D02*
D03*
X105000D02*
D03*
X371000Y267561D02*
D03*
X381000D02*
D03*
X282500Y268061D02*
D03*
X292500D02*
D03*
X183500D02*
D03*
X193500D02*
D03*
X292500Y36000D02*
D03*
X282500D02*
D03*
X86000Y268061D02*
D03*
X96000D02*
D03*
X193500Y36000D02*
D03*
X183500D02*
D03*
X35500Y45000D02*
D03*
Y55000D02*
D03*
X328658Y90500D02*
D03*
X327658Y199500D02*
D03*
X232658Y103000D02*
D03*
Y192500D02*
D03*
X133158Y197500D02*
D03*
X127157Y95500D02*
D03*
X52157Y175000D02*
D03*
X38157Y104500D02*
D03*
D32*
X348342Y90500D02*
D03*
X347342Y199500D02*
D03*
X252343Y103000D02*
D03*
Y192500D02*
D03*
X152842Y197500D02*
D03*
X146843Y95500D02*
D03*
X71842Y175000D02*
D03*
X57842Y104500D02*
D03*
D33*
X311000Y98000D02*
D03*
X299000Y174000D02*
D03*
D34*
X13000Y128000D02*
D03*
X87500Y10500D02*
D03*
X355500Y12000D02*
D03*
X265000Y9000D02*
D03*
X398500Y291500D02*
D03*
X166000Y10500D02*
D03*
X310000Y292000D02*
D03*
X211000D02*
D03*
X113500Y291500D02*
D03*
X265000Y292000D02*
D03*
X213000Y10500D02*
D03*
X400500Y12000D02*
D03*
X132500Y10500D02*
D03*
X309500Y8500D02*
D03*
X166000Y292000D02*
D03*
X353500Y291500D02*
D03*
X68500Y290500D02*
D03*
X69500Y10500D02*
D03*
M02*
