G04 Layer_Color=32896*
%FSLAX25Y25*%
%MOIN*%
G70*
G01*
G75*
%ADD10C,0.01000*%
%ADD36C,0.00787*%
%ADD50C,0.00800*%
D10*
X385101Y176398D02*
X387101D01*
X386101D01*
Y171400D01*
X387101Y170400D01*
X388100D01*
X389100Y171400D01*
X383102Y175398D02*
X382102Y176398D01*
X380103D01*
X379103Y175398D01*
Y174399D01*
X380103Y173399D01*
X381103D01*
X380103D01*
X379103Y172399D01*
Y171400D01*
X380103Y170400D01*
X382102D01*
X383102Y171400D01*
X157801Y172398D02*
X159801D01*
X158801D01*
Y167400D01*
X159801Y166400D01*
X160800D01*
X161800Y167400D01*
X152803Y166400D02*
Y172398D01*
X155802Y169399D01*
X151803D01*
D36*
X153500Y143000D02*
Y163000D01*
X73500Y143000D02*
Y163000D01*
X153500D01*
X73500Y143000D02*
X153500D01*
X200000Y167000D02*
X380000D01*
X200000Y147000D02*
X380000D01*
X200000D02*
Y167000D01*
X380000Y147000D02*
Y167000D01*
D50*
X66668Y145500D02*
X70000D01*
X66668Y148832D01*
Y149665D01*
X67501Y150498D01*
X69167D01*
X70000Y149665D01*
Y155000D02*
X68334D01*
X69167D01*
Y159998D01*
X70000Y159165D01*
X165500Y155000D02*
X163834D01*
X164667D01*
Y159998D01*
X165500Y159165D01*
X158002Y159998D02*
X161335D01*
Y157499D01*
X159669Y158332D01*
X158835D01*
X158002Y157499D01*
Y155833D01*
X158835Y155000D01*
X160502D01*
X161335Y155833D01*
X165500Y145500D02*
X163834D01*
X164667D01*
Y150498D01*
X165500Y149665D01*
X158002Y150498D02*
X159669Y149665D01*
X161335Y147999D01*
Y146333D01*
X160502Y145500D01*
X158835D01*
X158002Y146333D01*
Y147166D01*
X158835Y147999D01*
X161335D01*
X393500Y153665D02*
X392667Y154498D01*
X391001D01*
X390168Y153665D01*
Y152832D01*
X391001Y151999D01*
X391834D01*
X391001D01*
X390168Y151166D01*
Y150333D01*
X391001Y149500D01*
X392667D01*
X393500Y150333D01*
X385169Y154498D02*
X386836Y153665D01*
X388502Y151999D01*
Y150333D01*
X387669Y149500D01*
X386002D01*
X385169Y150333D01*
Y151166D01*
X386002Y151999D01*
X388502D01*
X393000Y164165D02*
X392167Y164998D01*
X390501D01*
X389668Y164165D01*
Y163332D01*
X390501Y162499D01*
X391334D01*
X390501D01*
X389668Y161666D01*
Y160833D01*
X390501Y160000D01*
X392167D01*
X393000Y160833D01*
X384669Y164998D02*
X388002D01*
Y162499D01*
X386335Y163332D01*
X385502D01*
X384669Y162499D01*
Y160833D01*
X385502Y160000D01*
X387169D01*
X388002Y160833D01*
X195500Y158500D02*
X193834D01*
X194667D01*
Y163498D01*
X195500Y162665D01*
X192668Y149000D02*
X196000D01*
X192668Y152332D01*
Y153165D01*
X193501Y153998D01*
X195167D01*
X196000Y153165D01*
M02*
