G04 Layer_Physical_Order=1*
G04 Layer_Color=255*
%FSLAX25Y25*%
%MOIN*%
G70*
G01*
G75*
%ADD10C,0.01000*%
%ADD11C,0.06693*%
%ADD12R,0.06693X0.06693*%
%ADD13C,0.05512*%
%ADD14C,0.32677*%
%ADD15R,0.05906X0.05906*%
%ADD16C,0.05906*%
%ADD17R,0.05906X0.05906*%
%ADD18R,0.06299X0.06299*%
%ADD19C,0.06299*%
%ADD20R,0.06299X0.06299*%
%ADD21C,0.05315*%
%ADD22R,0.05315X0.05315*%
%ADD23C,0.05000*%
D10*
X172500Y36000D02*
X183500D01*
X167500Y41000D02*
X172500Y36000D01*
X193500Y35049D02*
X194451Y36000D01*
X206500D02*
X213000Y42500D01*
X194451Y36000D02*
X206500D01*
X394000Y37500D02*
X400500Y44000D01*
X355500D02*
X361500Y38000D01*
X373000D01*
X315000Y152000D02*
X361646Y105354D01*
X376500D01*
X383000Y37500D02*
X394000D01*
X281000Y36000D02*
X282025Y37025D01*
X270000Y36000D02*
X281000D01*
X266500Y39500D02*
X270000Y36000D01*
X265000Y39500D02*
X266500D01*
X308000Y39000D02*
X309500D01*
X304500Y35500D02*
X308000Y39000D01*
X292500Y35500D02*
X304500D01*
X76653Y85725D02*
Y105508D01*
X92951Y37049D02*
X105000D01*
X87500Y42500D02*
X92951Y37049D01*
X131500Y41500D02*
X132500D01*
X127049Y37049D02*
X131500Y41500D01*
X115000Y37049D02*
X127049D01*
X180500Y39000D02*
X183500Y36000D01*
X180500Y39000D02*
Y105354D01*
X277000Y252561D02*
X292500Y268061D01*
X277000Y233354D02*
Y252561D01*
X300561Y260000D02*
X310000D01*
X292500Y268061D02*
X300561Y260000D01*
X222693Y147547D02*
X226844D01*
X180500Y105354D02*
X222693Y147547D01*
X235000Y132328D02*
Y152000D01*
X202672Y100000D02*
X235000Y132328D01*
X195500Y100000D02*
X202672D01*
X185500Y90000D02*
X195500Y100000D01*
X210000Y260000D02*
X211000Y261000D01*
X112000Y259500D02*
X113500Y261000D01*
X397500Y259500D02*
X398500Y260500D01*
X366939Y243915D02*
X384854Y226000D01*
X166000Y261000D02*
X167000Y260000D01*
X175439D02*
X183500Y268061D01*
X167000Y260000D02*
X175439D01*
X274439D02*
X282500Y268061D01*
X267000Y260000D02*
X274439D01*
X266000Y261000D02*
X267000Y260000D01*
X353500Y260500D02*
X354500Y259500D01*
X362939D02*
X371000Y267561D01*
X354500Y259500D02*
X362939D01*
X389061D02*
X397500D01*
X381031Y267530D02*
X389061Y259500D01*
X325000Y182000D02*
X360000D01*
X305000Y162000D02*
X325000Y182000D01*
X317500Y184500D02*
X353500D01*
X295000Y162000D02*
X317500Y184500D01*
X281492Y100508D02*
X292000Y90000D01*
X274992Y100508D02*
X281492D01*
X265000Y107000D02*
X282000Y90000D01*
X265000Y107000D02*
Y152000D01*
X272153Y110153D02*
X275000Y113000D01*
X272153Y103347D02*
Y110153D01*
Y103347D02*
X274992Y100508D01*
X275000Y113000D02*
Y152000D01*
X96175Y92847D02*
X132328Y129000D01*
X94346Y92847D02*
X96175D01*
X132328Y129000D02*
X157657D01*
X130000Y131000D02*
X156828D01*
X93846Y94846D02*
X130000Y131000D01*
X86347Y94846D02*
X93846D01*
X91500Y90000D02*
X94346Y92847D01*
X76653Y85725D02*
X87500Y74879D01*
X76653Y105508D02*
X104146Y133000D01*
X81500Y90000D02*
X86347Y94846D01*
X156828Y131000D02*
X177828Y152000D01*
X384000Y97500D02*
X391500Y90000D01*
X359500Y97500D02*
X384000D01*
X44000Y128000D02*
X45000Y129000D01*
X366939Y243915D02*
Y253500D01*
X381000Y267561D01*
X87500Y42500D02*
Y74879D01*
Y40500D02*
Y42500D01*
X272000Y191500D02*
Y218000D01*
X262500Y182000D02*
X272000Y191500D01*
X142500Y182000D02*
X262500D01*
X264000Y180000D02*
X302000Y218000D01*
X150500Y180000D02*
X264000D01*
X305500Y178000D02*
X314500Y187000D01*
X158500Y178000D02*
X305500D01*
X138500Y158000D02*
X158500Y178000D01*
X164500Y174000D02*
X299000D01*
X148500Y158000D02*
X164500Y174000D01*
X128500Y158000D02*
X150500Y180000D01*
X118500Y158000D02*
X142500Y182000D01*
X193000Y184000D02*
X205500Y196500D01*
X134500Y184000D02*
X193000D01*
X108500Y158000D02*
X134500Y184000D01*
X352500Y187000D02*
X371500Y206000D01*
X314500Y187000D02*
X352500D01*
X371500Y206000D02*
Y219000D01*
X391500Y213500D02*
Y219000D01*
X360000Y182000D02*
X391500Y213500D01*
X381500Y212500D02*
Y219000D01*
X353500Y184500D02*
X381500Y212500D01*
X226844Y147547D02*
X229453Y150156D01*
Y152750D01*
X250500Y156500D02*
X255000Y152000D01*
X233203Y156500D02*
X250500D01*
X229453Y152750D02*
X233203Y156500D01*
X406500Y212500D02*
Y221500D01*
X402000Y226000D02*
X406500Y221500D01*
X384854Y226000D02*
X402000D01*
X373500Y179500D02*
X406500Y212500D01*
X71500Y217000D02*
X84000Y204500D01*
Y163500D02*
Y204500D01*
X78500Y158000D02*
X84000Y163500D01*
X71500Y141000D02*
X78500Y148000D01*
X71500Y90000D02*
Y141000D01*
X175500Y197000D02*
Y218000D01*
X164500Y186000D02*
X175500Y197000D01*
X126500Y186000D02*
X164500D01*
X176204Y147547D02*
X206844D01*
X211297Y152000D01*
X179453Y156453D02*
X216844D01*
X156000Y133000D02*
X179453Y156453D01*
X216844D02*
X221297Y152000D01*
X332500Y179500D02*
X373500D01*
X101500Y171000D02*
Y217000D01*
X76500Y232354D02*
Y248561D01*
X205500Y196500D02*
Y218000D01*
X285000Y142000D02*
Y152000D01*
X305000D02*
X359500Y97500D01*
X295000Y152000D02*
X351500Y95500D01*
X315000Y162000D02*
X332500Y179500D01*
X211297Y152000D02*
X215000D01*
X177828D02*
X205000D01*
X221297D02*
X225000D01*
X282500Y35500D02*
Y36000D01*
X76500Y248561D02*
X96000Y268061D01*
X68500Y258500D02*
X76439D01*
X86000Y268061D01*
X98500Y158000D02*
X126500Y186000D01*
X88500Y158000D02*
X101500Y171000D01*
X157657Y129000D02*
X176204Y147547D01*
X104146Y133000D02*
X156000D01*
X180500Y233354D02*
Y255061D01*
X193500Y268061D01*
X45000Y129000D02*
Y141500D01*
X35500Y151000D02*
X45000Y141500D01*
X351500Y95500D02*
X376000D01*
X381500Y90000D01*
X193500Y268061D02*
X201561Y260000D01*
X210000D01*
X96000Y268061D02*
X104561Y259500D01*
X112000D01*
X195500Y90000D02*
X245000Y139500D01*
Y152000D01*
X277000Y105354D02*
Y134000D01*
X285000Y142000D01*
D11*
X401500Y219000D02*
D03*
X396500Y234354D02*
D03*
X391500Y219000D02*
D03*
X386500Y234354D02*
D03*
X381500Y219000D02*
D03*
X376500Y234354D02*
D03*
X401500Y90000D02*
D03*
X396500Y105354D02*
D03*
X391500Y90000D02*
D03*
X386500Y105354D02*
D03*
X381500Y90000D02*
D03*
X376500Y105354D02*
D03*
X205500Y218000D02*
D03*
X200500Y233354D02*
D03*
X195500Y218000D02*
D03*
X190500Y233354D02*
D03*
X185500Y218000D02*
D03*
X180500Y233354D02*
D03*
X205500Y90000D02*
D03*
X200500Y105354D02*
D03*
X195500Y90000D02*
D03*
X190500Y105354D02*
D03*
X185500Y90000D02*
D03*
X180500Y105354D02*
D03*
X101500Y90000D02*
D03*
X96500Y105354D02*
D03*
X91500Y90000D02*
D03*
X86500Y105354D02*
D03*
X81500Y90000D02*
D03*
X76500Y105354D02*
D03*
X101500Y217000D02*
D03*
X96500Y232354D02*
D03*
X91500Y217000D02*
D03*
X86500Y232354D02*
D03*
X81500Y217000D02*
D03*
X76500Y232354D02*
D03*
X302000Y218000D02*
D03*
X297000Y233354D02*
D03*
X292000Y218000D02*
D03*
X287000Y233354D02*
D03*
X282000Y218000D02*
D03*
X277000Y233354D02*
D03*
X302000Y90000D02*
D03*
X297000Y105354D02*
D03*
X292000Y90000D02*
D03*
X287000Y105354D02*
D03*
X282000Y90000D02*
D03*
X277000Y105354D02*
D03*
D12*
X371500Y219000D02*
D03*
Y90000D02*
D03*
X175500Y218000D02*
D03*
Y90000D02*
D03*
X71500D02*
D03*
Y217000D02*
D03*
X272000Y218000D02*
D03*
Y90000D02*
D03*
D13*
X13000Y128000D02*
D03*
X45000D02*
D03*
X87500Y10500D02*
D03*
Y42500D02*
D03*
X355500Y12000D02*
D03*
Y44000D02*
D03*
X265000Y9000D02*
D03*
Y41000D02*
D03*
X398500Y291500D02*
D03*
Y259500D02*
D03*
X166000Y10500D02*
D03*
Y42500D02*
D03*
X310000Y292000D02*
D03*
Y260000D02*
D03*
X211000Y292000D02*
D03*
Y260000D02*
D03*
X113500Y291500D02*
D03*
Y259500D02*
D03*
X265000Y292000D02*
D03*
Y260000D02*
D03*
X213000Y10500D02*
D03*
Y42500D02*
D03*
X400500Y12000D02*
D03*
Y44000D02*
D03*
X132500Y10500D02*
D03*
Y42500D02*
D03*
X309500Y8500D02*
D03*
Y40500D02*
D03*
X166000Y292000D02*
D03*
Y260000D02*
D03*
X353500Y291500D02*
D03*
Y259500D02*
D03*
X68500Y290500D02*
D03*
Y258500D02*
D03*
X69500Y10500D02*
D03*
Y42500D02*
D03*
D14*
X428000Y21000D02*
D03*
X20500D02*
D03*
X428000Y279000D02*
D03*
X20500D02*
D03*
D15*
X78500Y158000D02*
D03*
X205000Y162000D02*
D03*
D16*
X78500Y148000D02*
D03*
X88500Y158000D02*
D03*
Y148000D02*
D03*
X98500Y158000D02*
D03*
Y148000D02*
D03*
X108500Y158000D02*
D03*
Y148000D02*
D03*
X118500Y158000D02*
D03*
Y148000D02*
D03*
X128500Y158000D02*
D03*
Y148000D02*
D03*
X138500Y158000D02*
D03*
Y148000D02*
D03*
X148500Y158000D02*
D03*
Y148000D02*
D03*
X375000Y152000D02*
D03*
Y162000D02*
D03*
X365000Y152000D02*
D03*
Y162000D02*
D03*
X355000Y152000D02*
D03*
Y162000D02*
D03*
X345000Y152000D02*
D03*
Y162000D02*
D03*
X335000Y152000D02*
D03*
Y162000D02*
D03*
X325000Y152000D02*
D03*
Y162000D02*
D03*
X315000Y152000D02*
D03*
Y162000D02*
D03*
X305000Y152000D02*
D03*
Y162000D02*
D03*
X295000Y152000D02*
D03*
Y162000D02*
D03*
X285000Y152000D02*
D03*
Y162000D02*
D03*
X275000Y152000D02*
D03*
Y162000D02*
D03*
X265000Y152000D02*
D03*
Y162000D02*
D03*
X255000Y152000D02*
D03*
Y162000D02*
D03*
X245000Y152000D02*
D03*
Y162000D02*
D03*
X235000Y152000D02*
D03*
Y162000D02*
D03*
X225000Y152000D02*
D03*
Y162000D02*
D03*
X215000Y152000D02*
D03*
Y162000D02*
D03*
X205000Y152000D02*
D03*
X413000Y165000D02*
D03*
X434500Y128000D02*
D03*
D17*
X413000Y155000D02*
D03*
X434500Y118000D02*
D03*
D18*
X35500Y151000D02*
D03*
Y45000D02*
D03*
D19*
Y161000D02*
D03*
X373000Y38000D02*
D03*
X105000Y37049D02*
D03*
X381000Y267561D02*
D03*
X292500Y268061D02*
D03*
X193500D02*
D03*
X282500Y36000D02*
D03*
X96000Y268061D02*
D03*
X183500Y36000D02*
D03*
X35500Y55000D02*
D03*
D20*
X383000Y38000D02*
D03*
X115000Y37049D02*
D03*
X371000Y267561D02*
D03*
X282500Y268061D02*
D03*
X183500D02*
D03*
X292500Y36000D02*
D03*
X86000Y268061D02*
D03*
X193500Y36000D02*
D03*
D21*
X328658Y90500D02*
D03*
X327658Y199500D02*
D03*
X232658Y103000D02*
D03*
Y192500D02*
D03*
X133158Y197500D02*
D03*
X127157Y95500D02*
D03*
X58157Y176000D02*
D03*
X33000Y80500D02*
D03*
D22*
X348342Y90500D02*
D03*
X347342Y199500D02*
D03*
X252343Y103000D02*
D03*
Y192500D02*
D03*
X152842Y197500D02*
D03*
X146843Y95500D02*
D03*
X77842Y176000D02*
D03*
X52685Y80500D02*
D03*
D23*
X299000Y174000D02*
D03*
M02*
