M48
;Layer_Color=9474304
;FILE_FORMAT=2:5
INCH,LZ
;TYPE=PLATED
T1F00S00C0.02800
T2F00S00C0.03150
T3F00S00C0.03346
T4F00S00C0.03543
T5F00S00C0.04331
T6F00S00C0.12598
%
T01
X0311Y0098
X0299Y0174
T02
X00355Y0045
Y0055
X0105Y0037049
X0115
X01835Y0036
X01935
X02825
X02925
X0373Y0038
X0383
X0348342Y00905
X0328658Y00905
X0252343Y0103
X0232658Y0103
Y01925
X0252343Y01925
X0327658Y01995
X0347342Y01995
X0152842Y01975
X0133158Y01975
X0071842Y0175
X0057842Y01045
X0127157Y00955
X0146843Y00955
X0038157Y01045
X00355Y0151
Y0161
X0052157Y0175
X0086Y0268061
X0096
X01835
X01935
X02825
X02925
X0371Y0267561
X0381
T03
X00695Y00105
X00875
Y00425
X00695
X01325
Y00105
X0166
Y00425
X0213
Y00105
X0265Y0009
Y0041
X03095Y00405
Y00085
X03555Y0012
Y0044
X04005
Y0012
X0045Y0128
X0013
X00685Y02585
Y02905
X01135Y02915
Y02595
X0166Y026
Y0292
X0211
Y026
X0265
Y0292
X031
Y026
X03535Y02595
Y02915
X03985
Y02595
T04
X0375Y0152
Y0162
X0413Y0165
Y0155
X04345Y0128
Y0118
X0365Y0152
Y0162
X0355
Y0152
X0345
Y0162
X0335
Y0152
X0325
Y0162
X0315
Y0152
X0305
Y0162
X0295
Y0152
X0285
Y0162
X0275
Y0152
X0265
Y0162
X0255
Y0152
X0245
Y0162
X0235
Y0152
X0225
Y0162
X0215
Y0152
X0205
Y0162
X01485Y0158
X01385
X01285
X01185
X01085
X00985
X00885
X00785
Y0148
X00885
X00985
X01085
X01185
X01285
X01385
X01485
T05
X03715Y0077929
X03815
X03915
X04015
X03965Y0093283
X03865
X03765
X03715Y0206929
X03815
X03915
X04015
X0302Y0205929
X0292
X0282
X0272
X0277Y0093283
X0287
X0297
X0292Y0077929
X0282
X0272
X0302
X02055
X01955
X01855
X01755
X01805Y0093283
X01905
X02005
X00965
X00865
X00765
X00715Y0077929
X00815
X00915
X01015
X00975Y0208362
X00875
X00775
X01075
X01755Y0205929
X01855
X01955
X02055
X02005Y0221284
X01905
X01805
X01025Y0223716
X00925
X00825
X0277Y0221284
X0287
X0297
X03765Y0222284
X03865
X03965
T06
X00205Y0021
X0428
X00205Y0279
X0428
M30
